# xmcd
#
# Track frame offsets:
#	150
#	14478
#	32190
#	48904
#	64233
#	76601
#	92885
#	108580
#	120825
#	134645
#	149469
#	164952
#
# Disc length: 2404 seconds
#
# Revision: 1
# Processed by: cddbd v1.5.1PL0 Copyright (c) Steve Scherf et al.
# Submitted via: audiograbber 1.82.01
#
DISCID=a909620c
DTITLE=Grupo Rodeio - Gaúchops de Fato
DYEAR=2001
DGENRE=Gaúcho
TTITLE0=Sina de Andejo
TTITLE1=Gaúchos de Fato
TTITLE2=Lendário Avô
TTITLE3=Ao Trote do Cavalo
TTITLE4=Fronteira
TTITLE5=Relato de Um Velho Louco
TTITLE6=Na Vida Por Sorte
TTITLE7=Tempo e Saudade
TTITLE8=Domador
TTITLE9=Cem Anos de Glória
TTITLE10=Vendi os Bois
TTITLE11=De Ninguém
EXTD=
EXTT0=
EXTT1=
EXTT2=
EXTT3=
EXTT4=
EXTT5=
EXTT6=
EXTT7=
EXTT8=
EXTT9=
EXTT10=
EXTT11=
PLAYORDER=
